<?xml version="1.0" encoding="utf-8"?>
<!-- Generator: Adobe Illustrator 19.0.0, SVG Export Plug-In . SVG Version: 6.00 Build 0)  -->
<svg version="1.1" id="Layer_1" xmlns="http://www.w3.org/2000/svg" xmlns:xlink="http://www.w3.org/1999/xlink" x="0px" y="0px"
	 viewBox="0 328 138 138" style="enable-background:new 0 328 138 138;" xml:space="preserve">
<style type="text/css">
	.st0{fill:#B1253E;}
</style>
<path class="st0" d="M84.7,347.8c-7.3,0-14,0.1-20.8,0c-6.1-0.1-9.6-3.1-9.5-7.9c0.1-4.6,3.4-7.4,9.3-7.4c17.5-0.1,35-0.1,52.5,0
	c7.2,0,10.5,5.3,7.7,12c-15,36.8-30.1,73.6-45,110.4c-2,4.8-5.2,6.8-10.4,6.7c-5.1,0-8-2.4-9.8-6.9c-14.9-36.4-29.8-72.6-44.5-109
	c-1.1-2.6-1.5-6.4-0.4-8.8c0.9-2.1,4.7-4.6,6.7-4.2c2.9,0.6,6.4,3,7.6,5.6c6.5,14.7,12.3,29.6,18.4,44.5
	c7.3,17.7,14.6,35.4,22.3,54.3c12.5-30.3,24.5-59.6,36.7-89.5C98.4,347.8,91.8,347.8,84.7,347.8z"/>
</svg>
